Simulation
nRows=24
nColumns=15
endheader
time  TH_x TH_y TH_z SC_y  SC_z  SC_x  AC_y  AC_z  AC_x  GH_y  GH_z  GH_yy  EL_x  PS_y
8.6175  0.000000  0.000000  0.000000  -37.62274308695273  -0.6195190602243134  -7.8744668034464285  47.881048289575766  11.137660963791435  5.844842966268516  -0.7510732794573319  4.009771703925693  12.458754168450065  20.5749751914002  120.000000
8.67495  0.000000  0.000000  0.000000  -37.32310134831829  -0.6538916677927368  -8.735966158569196  47.274323197900074  11.441672865608597  5.9686225856616035  8.156145276720215  4.680721765756237  3.625111444299413  20.50814258615658  120.000000
8.7324  0.000000  0.000000  0.000000  -36.9701777213145  -0.7489212146763978  -9.650236999756906  46.760127747190666  11.75306933933052  6.1660908809043695  18.59414536652197  5.680535168553052  -6.590092298073182  20.61889030485558  120.000000
8.78985  0.000000  0.000000  0.000000  -36.6048679659668  -0.8950239806304958  -10.576401509165564  46.35326853266999  12.081467928373645  6.437103141277606  28.858221041350973  7.159715256427136  -16.531850936536397  20.88593812619102  120.000000
8.8473  0.000000  0.000000  0.000000  -36.274668639844  -1.0668141647363547  -11.484015443793258  46.053865212907496  12.436113426890993  6.767104909564651  37.747579452457764  9.21920259885654  -25.07978463413914  21.245077258197412  120.000000
8.90475  0.000000  0.000000  0.000000  -36.02012600950338  -1.235053352164917  -12.354456316181905  45.855481881083215  12.82063547924435  7.132788281279884  44.90692905541385  11.895335530656745  -31.961230363765953  21.620635619885665  120.000000
8.9622  0.000000  0.000000  0.000000  -35.86815817447428  -1.3748929884093042  -13.174453965622842  45.74358698637213  13.230513479162045  7.511359537233969  50.49340348591526  15.16981646421285  -37.39274897766653  21.950644818151208  120.000000
9.01965  0.000000  0.000000  0.000000  -35.83184398371039  -1.4679789714197333  -13.929590409358756  45.69569308522518  13.652519111165994  7.886230042746006  54.824582780692204  18.982654830923757  -41.713056885979135  22.19992251721285  120.000000
9.0771  0.000000  0.000000  0.000000  -35.91054966319442  -1.506271006585172  -14.598991894715803  45.69139386869198  14.069424325744299  8.246986365535745  58.213938279162456  23.253013804961224  -45.21962862707115  22.358827011623482  120.000000
9.13455  0.000000  0.000000  0.000000  -36.09400210032916  -1.4923353929343761  -15.152108360656255  45.721413999711444  14.470159829946162  8.582345899998678  60.908483242855745  27.89912656110788  -48.118313985846946  22.43129602592732  120.000000
9.192  0.000000  0.000000  0.000000  -36.366454886274546  -1.4268177410102914  -15.551176750965936  45.78817798988539  14.853964270992952  8.872630206166166  63.08428208359617  32.843510723374756  -50.53171209839807  22.421465895308504  120.000000
9.24945  0.000000  0.000000  0.000000  -36.70726140493322  -1.308691556605499  -15.752403335699066  45.899328504979266  15.227434570760964  9.092318095486473  64.86849904511645  38.01226333053217  -52.531316959434825  22.324922725920672  120.000000
9.3069  0.000000  0.000000  0.000000  -37.09009650716196  -1.1379587416670571  -15.70965587918256  46.0631662956431  15.597963182753519  9.214711567318442  66.35766913298364  43.333640575081105  -54.16304474580389  22.129870980512568  120.000000
9.36435  0.000000  0.000000  0.000000  -37.485152054070085  -0.916235960063867  -15.382281362864163  46.285597594674385  15.966439212650172  9.213956137163917  67.62666595524357  48.73392889030379  -55.461319639975244  21.82514700599171  120.000000
9.421800000000001  0.000000  0.000000  0.000000  -37.865431795418985  -0.6501881688200384  -14.743734389451252  46.5676038138568  16.3215520324875  9.068030306314446  68.72996872348544  54.13448338613313  -56.45728478064863  21.41169027582111  120.000000
9.47925  0.000000  0.000000  0.000000  -38.21811572089869  -0.35323710967812816  -13.786713104496418  46.90067439327758  16.63857950732332  8.763121170556698  69.69971846515571  59.45068292283613  -57.182865380365115  20.911407268369107  120.000000
9.5367  0.000000  0.000000  0.000000  -38.54946538995429  -0.046281828790015314  -12.524808476135691  47.2633870230764  16.884247385077863  8.299534931900343  70.5456122546312  64.59280211587327  -57.672302321544  20.36477358102408  120.000000
9.59415  0.000000  0.000000  0.000000  -38.878519007018845  0.2438477350737302  -10.99215247177846  47.62535117470074  17.025033763070226  7.695040469335097  71.26394441584328  69.467504728417  -57.96223285370245  19.820419240860744  120.000000
9.6516  0.000000  0.000000  0.000000  -39.223294772111764  0.49285885407461366  -9.245475414837914  47.95513103986352  17.037931494967676  6.9800991840493625  71.84744423327541  73.97676017934383  -58.0891508890635  19.322931028509885  120.000000
9.70905  0.000000  0.000000  0.000000  -39.58733277646935  0.688109016219445  -7.367703042008326  48.228757076134414  16.917480971323474  6.1891075502376625  72.2936767313922  78.01492436666  -58.08782480271155  18.901810479254937  120.000000
9.7665  0.000000  0.000000  0.000000  -39.95222484643127  0.8286950504284543  -5.464019758415419  48.43751062001594  16.674747743887217  5.352090293216172  72.61036824963698  81.4717934675809  -57.990700267754235  18.573807302693684  120.000000
9.82395  0.000000  0.000000  0.000000  -40.28666532069866  0.923359358685832  -3.6506926711528473  48.58564015998901  16.330432032011895  4.494427398345662  72.81517484287959  84.24184798684239  -57.82715102128797  18.34767419723967  120.000000
9.8814  0.000000  0.000000  0.000000  -40.556943865699985  0.9806539839538462  -2.0437692277502175  48.680872048844705  15.906861684356079  3.6432086247392266  72.93038644491315  86.23447527296985  -57.62337046004163  18.225266368087198  120.000000
9.93885  0.000000  0.000000  0.000000  -40.73491143883038  1.0013756672440464  -0.7486197542126766  48.72861987659704  15.422414029294208  2.8322117426633504  72.97863915282552  87.38440901207707  -57.4026486522999  18.19748877225766  120.000000
